M48
;DRILL FILE
;Generated by LibrePCB 0.1.0
;Creation Date: 2016-09-09T23:18:03
FMAT,2
METRIC,TZ
T1C0.300000
T2C0.400000
T3C0.500000
T4C0.600000
T5C1.016000
T6C1.397000
%
G90
G05
M71
T1
X29.368750Y3.810000
X37.623750Y3.810000
X38.735000Y9.366250
X30.480000Y9.366250
X24.765000Y4.762500
X33.020000Y4.762500
X41.275000Y4.762500
X21.431250Y9.048750
X21.113750Y2.857500
X21.113750Y3.810000
X20.002500Y4.921250
X20.002500Y5.873750
X17.462500Y8.890000
X14.446250Y5.715000
X15.240000Y5.715000
X16.033750Y5.715000
X16.827500Y5.715000
X12.858750Y5.556250
X11.747500Y5.556250
X12.700000Y1.905000
X11.747500Y0.952500
X6.508750Y0.793750
X4.603750Y4.286250
X4.603750Y5.080000
X7.620000Y4.921250
X7.620000Y5.715000
X8.255000Y6.826250
X8.096250Y8.255000
X8.096250Y9.048750
X11.271250Y9.525000
X10.477500Y9.525000
X8.255000Y12.065000
X20.002500Y9.525000
X18.415000Y13.970000
X19.367500Y13.970000
X13.970000Y15.398750
X13.176250Y15.398750
X14.446250Y14.446250
X13.493750Y14.446250
X12.382500Y14.763750
X18.097500Y12.382500
X16.033750Y11.588750
X15.081250Y12.065000
X13.652500Y12.065000
X4.445000Y15.875000
T2
X21.748750Y0.635000
X20.796250Y0.635000
X19.843750Y0.635000
X18.891250Y0.635000
X2.698750Y6.032500
X1.587500Y6.032500
X2.698750Y7.143750
X1.587500Y7.143750
X2.698750Y10.477500
X2.698750Y9.366250
X1.587500Y10.477500
X1.587500Y9.366250
X2.698750Y8.255000
X1.587500Y8.255000
T3
X53.975000Y5.715000
X53.975000Y6.667500
X53.975000Y7.620000
X53.022500Y7.620000
X53.022500Y6.667500
X53.022500Y5.715000
X52.070000Y5.715000
X52.070000Y6.667500
X52.070000Y7.620000
X53.975000Y8.572500
X53.022500Y8.572500
X52.070000Y8.572500
X55.086250Y7.620000
X56.991250Y7.620000
X56.038750Y7.620000
X55.086250Y8.572500
X56.991250Y8.572500
X56.038750Y8.572500
X55.086250Y3.810000
X56.991250Y3.810000
X56.038750Y3.810000
X48.736250Y6.191250
X49.688750Y6.191250
X50.641250Y6.191250
X50.641250Y8.096250
X49.688750Y8.096250
X48.736250Y8.096250
X50.641250Y7.143750
X49.688750Y7.143750
X48.736250Y7.143750
X48.895000Y10.318750
X48.895000Y12.700000
X47.625000Y10.953750
X47.625000Y12.065000
T4
X10.953750Y2.857500
X4.762500Y3.016250
X44.132500Y14.128750
X35.877500Y14.128750
X27.622500Y14.128750
T5
X55.880000Y5.715000
X55.880000Y10.795000
T6
X55.880000Y1.905000
X55.880000Y14.605000
T0
M30
