G04 --- HEADER BEGIN --- *
%TF.GenerationSoftware,LibrePCB,LibrePCB,0.1.0*%
%TF.CreationDate,2016-09-09T23:18:03*%
%TF.ProjectId,Demo Brushless Controller Project - default,ace706f3-b818-4ce9-86ab-e3185109c18f,v1*%
%TF.Part,Single*%
%FSLAX66Y66*%
%MOMM*%
G01*
G74*
G04 --- HEADER END --- *
G04 --- APERTURE LIST BEGIN --- *
%ADD10P,2.540000X8X22.500000*%
%ADD11R,1.000000X1.100000*%
%ADD12R,1.200000X1.200000*%
%ADD13C,2.540000*%
%ADD14P,2.540000X8X292.500000*%
%ADD15R,0.700000X1.400000*%
%ADD16R,5.000000X4.300000*%
%ADD17R,2.000000X0.800000*%
%ADD18R,3.000000X2.100000*%
%ADD19R,1.100000X1.000000*%
%ADD20R,2.540000X5.080000*%
%ADD21R,2.400000X2.200000*%
%ADD22R,2.160000X1.780000*%
%ADD23R,5.080000X1.828800*%
%ADD24R,2.032000X0.660400*%
%ADD25R,3.200000X5.000000*%
%ADD26C,0.700000*%
%ADD27C,1.000000*%
%ADD28C,0.800000*%
%ADD29C,0.900000*%
%ADD30C,1.500000*%
%ADD31C,0.500000*%
%ADD32C,0.300000*%
G04 --- APERTURE LIST END --- *
G04 --- BOARD BEGIN --- *
D10*
X55880000Y14605000D03*
D11*
X20535000Y15557500D03*
X18835000Y15557500D03*
D12*
X5617500Y15240000D03*
X7717500Y15240000D03*
D11*
X14343750Y10001250D03*
X12643750Y10001250D03*
D13*
X55880000Y10795000D03*
D14*
X55880000Y5715000D03*
D15*
X24765000Y2747500D03*
X23495000Y2747500D03*
X22225000Y2747500D03*
X26035000Y2747500D03*
D16*
X24130000Y6397500D03*
D17*
X5357500Y8880000D03*
X5357500Y7630000D03*
X5357500Y6380000D03*
X5357500Y10130000D03*
D18*
X2232500Y12630000D03*
X2232500Y3880000D03*
D19*
X6985000Y3707500D03*
X6985000Y2007500D03*
D15*
X24765000Y10367500D03*
X23495000Y10367500D03*
X22225000Y10367500D03*
X26035000Y10367500D03*
D16*
X24130000Y14017500D03*
D15*
X33020000Y2747500D03*
X31750000Y2747500D03*
X30480000Y2747500D03*
X34290000Y2747500D03*
D16*
X32385000Y6397500D03*
D11*
X4865000Y13335000D03*
X6565000Y13335000D03*
D10*
X55880000Y1905000D03*
D15*
X33020000Y10367500D03*
X31750000Y10367500D03*
X30480000Y10367500D03*
X34290000Y10367500D03*
D16*
X32385000Y14017500D03*
D11*
X9310000Y15240000D03*
X11010000Y15240000D03*
X16986250Y2007500D03*
X16986250Y3707500D03*
D20*
X36512500Y8890000D03*
X44767500Y8890000D03*
D15*
X41275000Y10367500D03*
X40005000Y10367500D03*
X38735000Y10367500D03*
X42545000Y10367500D03*
D16*
X40640000Y14017500D03*
D21*
X10318750Y11575000D03*
X10318750Y7475000D03*
D19*
X20002500Y1690000D03*
X20002500Y3390000D03*
X14343750Y6826250D03*
X12643750Y6826250D03*
D22*
X52705000Y6850000D03*
X52705000Y10920000D03*
D15*
X41275000Y2747500D03*
X40005000Y2747500D03*
X38735000Y2747500D03*
X42545000Y2747500D03*
D16*
X40640000Y6397500D03*
D23*
X3016250Y1270000D03*
D24*
X8991600Y2222500D03*
X8991600Y3492500D03*
X15138400Y2222500D03*
X15138400Y4762500D03*
X15138400Y952500D03*
X15138400Y3492500D03*
X8991600Y952500D03*
X8991600Y4762500D03*
D12*
X1172500Y15240000D03*
X3272500Y15240000D03*
D20*
X28257500Y8890000D03*
D25*
X49828450Y2857500D03*
X45104050Y2857500D03*
D11*
X17042500Y15557500D03*
X15342500Y15557500D03*
D19*
X14343750Y8413750D03*
X12643750Y8413750D03*
D11*
X18732500Y11010000D03*
X18732500Y9310000D03*
D26*
X4445000Y15875000D03*
X13652500Y12065000D03*
X15081250Y12065000D03*
X16033750Y11588750D03*
X18097500Y12382500D03*
X12382500Y14763750D03*
X13493750Y14446250D03*
X14446250Y14446250D03*
X13176250Y15398750D03*
X13970000Y15398750D03*
X19367500Y13970000D03*
X18415000Y13970000D03*
X20002500Y9525000D03*
X8255000Y12065000D03*
X10477500Y9525000D03*
X11271250Y9525000D03*
X8096250Y9048750D03*
X8096250Y8255000D03*
X8255000Y6826250D03*
X7620000Y5715000D03*
X7620000Y4921250D03*
X4603750Y5080000D03*
X4603750Y4286250D03*
X6508750Y793750D03*
X11747500Y952500D03*
X12700000Y1905000D03*
X11747500Y5556250D03*
X12858750Y5556250D03*
X16827500Y5715000D03*
X16033750Y5715000D03*
X15240000Y5715000D03*
X14446250Y5715000D03*
X17462500Y8890000D03*
X20002500Y5873750D03*
X20002500Y4921250D03*
X21113750Y3810000D03*
X21113750Y2857500D03*
X21431250Y9048750D03*
X41275000Y4762500D03*
X33020000Y4762500D03*
X24765000Y4762500D03*
X30480000Y9366250D03*
X38735000Y9366250D03*
X37623750Y3810000D03*
X29368750Y3810000D03*
D27*
X27622500Y14128750D03*
X35877500Y14128750D03*
X44132500Y14128750D03*
X4762500Y3016250D03*
X10953750Y2857500D03*
D28*
X1587500Y8255000D03*
X2698750Y8255000D03*
X1587500Y9366250D03*
X1587500Y10477500D03*
X2698750Y9366250D03*
X2698750Y10477500D03*
X1587500Y7143750D03*
X2698750Y7143750D03*
X1587500Y6032500D03*
X2698750Y6032500D03*
X18891250Y635000D03*
X19843750Y635000D03*
X20796250Y635000D03*
X21748750Y635000D03*
D29*
X47625000Y12065000D03*
X47625000Y10953750D03*
X48895000Y12700000D03*
X48895000Y10318750D03*
X48736250Y7143750D03*
X49688750Y7143750D03*
X50641250Y7143750D03*
X48736250Y8096250D03*
X49688750Y8096250D03*
X50641250Y8096250D03*
X50641250Y6191250D03*
X49688750Y6191250D03*
X48736250Y6191250D03*
X56038750Y3810000D03*
X56991250Y3810000D03*
X55086250Y3810000D03*
X56038750Y8572500D03*
X56991250Y8572500D03*
X55086250Y8572500D03*
X56038750Y7620000D03*
X56991250Y7620000D03*
X55086250Y7620000D03*
X52070000Y8572500D03*
X53022500Y8572500D03*
X53975000Y8572500D03*
X52070000Y7620000D03*
X52070000Y6667500D03*
X52070000Y5715000D03*
X53022500Y5715000D03*
X53022500Y6667500D03*
X53022500Y7620000D03*
X53975000Y7620000D03*
X53975000Y6667500D03*
X53975000Y5715000D03*
D30*
X45104050Y2857500D02*
X45104050Y952500D01*
D28*
X24765000Y952500D02*
X24765000Y2747500D01*
X26035000Y952500D02*
X26035000Y2747500D01*
D30*
X26035000Y952500D02*
X24765000Y952500D01*
D28*
X31750000Y952500D02*
X31750000Y2747500D01*
D30*
X31750000Y952500D02*
X26035000Y952500D01*
D28*
X33020000Y952500D02*
X33020000Y2747500D01*
D30*
X33020000Y952500D02*
X31750000Y952500D01*
D28*
X34290000Y952500D02*
X34290000Y2747500D01*
D30*
X34290000Y952500D02*
X33020000Y952500D01*
D28*
X42545000Y952500D02*
X42545000Y2747500D01*
D30*
X45104050Y952500D02*
X42545000Y952500D01*
D28*
X41275000Y952500D02*
X41275000Y2747500D01*
D30*
X42545000Y952500D02*
X41275000Y952500D01*
D28*
X40005000Y952500D02*
X40005000Y2747500D01*
D30*
X41275000Y952500D02*
X40005000Y952500D01*
X40005000Y952500D02*
X34290000Y952500D01*
D31*
X20002500Y1690000D02*
X21907500Y1690000D01*
X21907500Y1690000D02*
X22701250Y952500D01*
X23495000Y952500D02*
X22701250Y952500D01*
D30*
X23495000Y952500D02*
X24765000Y952500D01*
D28*
X23495000Y952500D02*
X23495000Y2747500D01*
D31*
X37623750Y3810000D02*
X38417500Y3810000D01*
X38417500Y3810000D02*
X38735000Y3492500D01*
X38735000Y2747500D02*
X38735000Y3492500D01*
X29368750Y3810000D02*
X30162500Y3810000D01*
X30162500Y3810000D02*
X30480000Y3492500D01*
X30480000Y2747500D02*
X30480000Y3492500D01*
X21113750Y3810000D02*
X21907500Y3810000D01*
X21907500Y3810000D02*
X22225000Y3492500D01*
X22225000Y2747500D02*
X22225000Y3492500D01*
X38735000Y10367500D02*
X38735000Y9366250D01*
X30480000Y10367500D02*
X30480000Y9366250D01*
X21431250Y9048750D02*
X21907500Y9048750D01*
X21907500Y9048750D02*
X22225000Y9366250D01*
X22225000Y10367500D02*
X22225000Y9366250D01*
D30*
X48895000Y12065000D02*
X47625000Y12065000D01*
X48895000Y12065000D02*
X48895000Y14017500D01*
X48895000Y10953750D02*
X47625000Y10953750D01*
X48895000Y10953750D02*
X48895000Y12065000D01*
D26*
X40005000Y10367500D02*
X40005000Y8890000D01*
X31750000Y8890000D02*
X31750000Y10367500D01*
X23495000Y8890000D02*
X23495000Y10367500D01*
X24765000Y10367500D02*
X24765000Y8890000D01*
X26035000Y10367500D02*
X26035000Y8890000D01*
X28257500Y8890000D02*
X26035000Y8890000D01*
X26035000Y8890000D02*
X24765000Y8890000D01*
X33020000Y10367500D02*
X33020000Y8890000D01*
X34290000Y10367500D02*
X34290000Y8890000D01*
X36512500Y8890000D02*
X34290000Y8890000D01*
X34290000Y8890000D02*
X33020000Y8890000D01*
X41275000Y10367500D02*
X41275000Y8890000D01*
X42545000Y10367500D02*
X42545000Y8890000D01*
X41275000Y8890000D02*
X42545000Y8890000D01*
X42545000Y8890000D02*
X44767500Y8890000D01*
X40640000Y6397500D02*
X40640000Y8890000D01*
X40005000Y8890000D02*
X40640000Y8890000D01*
X40640000Y8890000D02*
X41275000Y8890000D01*
X32385000Y6397500D02*
X32385000Y8890000D01*
X33020000Y8890000D02*
X32385000Y8890000D01*
X32385000Y8890000D02*
X31750000Y8890000D01*
X24130000Y6397500D02*
X24130000Y8890000D01*
X24765000Y8890000D02*
X24130000Y8890000D01*
X24130000Y8890000D02*
X23495000Y8890000D01*
X20535000Y15557500D02*
X23971250Y15557500D01*
X23971250Y15557500D02*
X24130000Y14017500D01*
D30*
X24130000Y14017500D02*
X48895000Y14017500D01*
D26*
X13970000Y15398750D02*
X13970000Y15557500D01*
X13970000Y15557500D02*
X15342500Y15557500D01*
D32*
X3272500Y15240000D02*
X3272500Y14348750D01*
X3272500Y14348750D02*
X3492500Y14128750D01*
X3492500Y14128750D02*
X4762500Y14128750D01*
X4762500Y14128750D02*
X4921250Y13970000D01*
X4865000Y13335000D02*
X4921250Y13970000D01*
X9310000Y15240000D02*
X7717500Y15240000D01*
X11010000Y15240000D02*
X11906250Y15240000D01*
X11906250Y15240000D02*
X12382500Y14763750D01*
X6565000Y13335000D02*
X7461250Y13335000D01*
D31*
X18415000Y13970000D02*
X14922500Y13970000D01*
X14922500Y13970000D02*
X14446250Y14446250D01*
X19367500Y13970000D02*
X19367500Y13176250D01*
X19367500Y13176250D02*
X18573750Y12382500D01*
X18097500Y12382500D02*
X18573750Y12382500D01*
D32*
X17462500Y8890000D02*
X17462500Y10477500D01*
X17462500Y10477500D02*
X17938750Y10953750D01*
X18732500Y11010000D02*
X17938750Y10953750D01*
X18732500Y11010000D02*
X19526250Y10953750D01*
X19526250Y10953750D02*
X20002500Y11430000D01*
X20002500Y11430000D02*
X20002500Y14446250D01*
X20002500Y14446250D02*
X19843750Y14605000D01*
X19843750Y14605000D02*
X18256250Y14605000D01*
X18256250Y14605000D02*
X17938750Y14922500D01*
X17938750Y15557500D02*
X17938750Y14922500D01*
D26*
X18835000Y15557500D02*
X17938750Y15557500D01*
X17938750Y15557500D02*
X17042500Y15557500D01*
D32*
X18732500Y9310000D02*
X19787500Y9310000D01*
X19787500Y9310000D02*
X20002500Y9525000D01*
X1172500Y15240000D02*
X1172500Y15936250D01*
X1172500Y15936250D02*
X1428750Y16192500D01*
X5397500Y16192500D02*
X5556250Y16033750D01*
X5617500Y15240000D02*
X5556250Y16033750D01*
X4445000Y16192500D02*
X4445000Y15875000D01*
X1428750Y16192500D02*
X4445000Y16192500D01*
X4445000Y16192500D02*
X5397500Y16192500D01*
X20002500Y5873750D02*
X20478750Y5873750D01*
X20478750Y5873750D02*
X20796250Y5556250D01*
X20796250Y5556250D02*
X20796250Y4603750D01*
X20796250Y4603750D02*
X20478750Y4286250D01*
X20478750Y4286250D02*
X20161250Y4286250D01*
X20161250Y4286250D02*
X20002500Y4127500D01*
X20002500Y3390000D02*
X20002500Y4127500D01*
D28*
X5357500Y10130000D02*
X7431250Y10130000D01*
X7431250Y10130000D02*
X8255000Y10953750D01*
X8255000Y12065000D02*
X8255000Y10953750D01*
X8255000Y12065000D02*
X8255000Y12700000D01*
X8255000Y12700000D02*
X8890000Y13335000D01*
X8890000Y13335000D02*
X11906250Y13335000D01*
X11906250Y13335000D02*
X12382500Y12858750D01*
X12382500Y12858750D02*
X12382500Y11747500D01*
X12382500Y11747500D02*
X13017500Y11112500D01*
X15557500Y7461250D02*
X16351250Y6667500D01*
X18891250Y635000D02*
X18097500Y1428750D01*
X18097500Y6032500D02*
X17462500Y6667500D01*
X17462500Y6667500D02*
X16351250Y6667500D01*
X19843750Y635000D02*
X18891250Y635000D01*
X20796250Y635000D02*
X19843750Y635000D01*
X21748750Y635000D02*
X20796250Y635000D01*
D31*
X10953750Y2857500D02*
X13017500Y2857500D01*
X13017500Y2857500D02*
X13652500Y2222500D01*
X15138400Y2222500D02*
X13652500Y2222500D01*
D28*
X18097500Y1428750D02*
X18097500Y2222500D01*
X18097500Y2222500D02*
X18097500Y6032500D01*
D31*
X16986250Y2222500D02*
X16986250Y2007500D01*
X18097500Y2222500D02*
X16986250Y2222500D01*
X16986250Y2222500D02*
X15138400Y2222500D01*
X16986250Y3707500D02*
X16986250Y3492500D01*
X16986250Y3492500D02*
X15138400Y3492500D01*
X15138400Y3492500D02*
X11747500Y3492500D01*
X11747500Y3492500D02*
X10477500Y4762500D01*
X8991600Y4762500D02*
X10477500Y4762500D01*
X7778750Y4762500D02*
X8991600Y4762500D01*
X7620000Y4921250D02*
X7778750Y4762500D01*
D32*
X15138400Y4762500D02*
X11430000Y4762500D01*
X11430000Y4762500D02*
X10636250Y5556250D01*
X10636250Y5556250D02*
X8890000Y5556250D01*
X8890000Y5556250D02*
X8255000Y6191250D01*
X8255000Y6826250D02*
X8255000Y6191250D01*
X5357500Y8880000D02*
X7927500Y8880000D01*
X7927500Y8880000D02*
X8096250Y9048750D01*
X5357500Y7630000D02*
X7471250Y7630000D01*
X7471250Y7630000D02*
X8096250Y8255000D01*
D31*
X5357500Y6380000D02*
X6955000Y6380000D01*
X6955000Y6380000D02*
X7620000Y5715000D01*
X7620000Y5715000D02*
X7620000Y4921250D01*
X14343750Y5715000D02*
X14446250Y5715000D01*
X14343750Y5715000D02*
X15240000Y5715000D01*
X15240000Y5715000D02*
X16033750Y5715000D01*
X16033750Y5715000D02*
X16827500Y5715000D01*
X14343750Y6826250D02*
X14343750Y5715000D01*
D32*
X14343750Y10001250D02*
X13652500Y10001250D01*
X13652500Y10001250D02*
X13493750Y9842500D01*
X13493750Y9842500D02*
X13493750Y5873750D01*
X13493750Y5873750D02*
X13335000Y5556250D01*
X12858750Y5556250D02*
X13335000Y5556250D01*
X10953750Y6826250D02*
X10318750Y7475000D01*
X11747500Y6826250D02*
X11747500Y5556250D01*
X12643750Y6826250D02*
X11747500Y6826250D01*
X11747500Y6826250D02*
X10953750Y6826250D01*
X11906250Y10001250D02*
X10318750Y11575000D01*
X12643750Y8413750D02*
X12700000Y8628750D01*
X12700000Y8628750D02*
X12643750Y10001250D01*
X12643750Y10001250D02*
X11906250Y10001250D01*
X21113750Y2857500D02*
X20796250Y2540000D01*
X20796250Y2540000D02*
X19367500Y2540000D01*
X19367500Y2540000D02*
X18891250Y3016250D01*
X18891250Y3016250D02*
X18891250Y6985000D01*
X20002500Y4921250D02*
X19367500Y5556250D01*
X19367500Y5556250D02*
X19367500Y7302500D01*
X18891250Y6985000D02*
X18415000Y7461250D01*
X18415000Y7461250D02*
X16986250Y7461250D01*
X16986250Y7461250D02*
X16351250Y8096250D01*
X16351250Y8096250D02*
X16351250Y10795000D01*
X16351250Y10795000D02*
X16827500Y11271250D01*
X16827500Y11271250D02*
X16827500Y11906250D01*
X16827500Y11906250D02*
X16351250Y12382500D01*
X16351250Y12382500D02*
X15875000Y12382500D01*
X15875000Y12382500D02*
X15398750Y12382500D01*
X15398750Y12382500D02*
X15081250Y12065000D01*
X19367500Y7302500D02*
X18732500Y7937500D01*
X18732500Y7937500D02*
X17303750Y7937500D01*
X17303750Y7937500D02*
X16827500Y8413750D01*
X16827500Y8413750D02*
X16827500Y10636250D01*
X16827500Y10636250D02*
X17303750Y11112500D01*
X17303750Y11112500D02*
X17303750Y12223750D01*
X17303750Y12223750D02*
X16668750Y12858750D01*
X16668750Y12858750D02*
X14446250Y12858750D01*
X14446250Y12858750D02*
X13652500Y12065000D01*
D28*
X16033750Y11588750D02*
X15557500Y11112500D01*
X15557500Y11112500D02*
X13017500Y11112500D01*
X15557500Y11112500D02*
X15557500Y7461250D01*
D32*
X6508750Y793750D02*
X6985000Y317500D01*
X6985000Y317500D02*
X13017500Y317500D01*
X13017500Y317500D02*
X13652500Y952500D01*
X13652500Y952500D02*
X15138400Y952500D01*
X6985000Y3707500D02*
X7200000Y3492500D01*
X7200000Y3492500D02*
X8991600Y3492500D01*
X6985000Y2007500D02*
X7200000Y2222500D01*
X7200000Y2222500D02*
X8991600Y2222500D01*
X6985000Y2007500D02*
X6882500Y1905000D01*
X6882500Y1905000D02*
X6350000Y1905000D01*
X6350000Y1905000D02*
X5715000Y1270000D01*
X5715000Y1270000D02*
X3016250Y1270000D01*
X6985000Y3707500D02*
X5453750Y3707500D01*
X5453750Y3707500D02*
X4762500Y3016250D01*
X7461250Y13335000D02*
X8255000Y14128750D01*
X8255000Y14128750D02*
X13176250Y14128750D01*
X13176250Y14128750D02*
X13493750Y14446250D01*
G04 --- BOARD END --- *
%TF.MD5,bf67be2a0ef9d4be9734c0d22271d2ce*%
M02*
